# xmcd CD database file
# Copyright (C) 1993-1997  Ti Kan
#
# Track frame offsets:
#	150
#	13680
#	30337
#	50110
#	66332
#	91920
#	113305
#	132247
#	146577
#	167462
#	189080
#	209392
#	228477
#	246682
#	263232
#	274817
#
# Disc length: 3860 seconds
#
# Revision: 1
# Processed by: cddbd v1.4b41PL1 Copyright (c) Steve Scherf et al.
# Submitted via: xmcd 2.1 PL2
#
DISCID=df0f1210
DTITLE=Big Joe Duskin - Down The Road A Piece
DYEAR=1900
DGENRE=
TTITLE0=Down The Road A Piece
TTITLE1=Roll'em Pete
TTITLE2=If You Want To Be My Woman
TTITLE3=Sixth Avenue Express
TTITLE4=Betty and Dupree
TTITLE5=Low Down Dog
TTITLE6=Key To The Highway
TTITLE7=Cuban Sugar Mill
TTITLE8=Well, Well Baby
TTITLE9=Boogie Woogie Prayer
TTITLE10=Going Down Slow
TTITLE11=Beat Me Daddy, Eight To The Bar
TTITLE12=Tender Hearted Woman
TTITLE13=Got My Mojo Working
TTITLE14=I Got Tired
TTITLE15=Blues Medley
EXTD=
EXTT0=
EXTT1=
EXTT2=
EXTT3=
EXTT4=
EXTT5=
EXTT6=
EXTT7=
EXTT8=
EXTT9=
EXTT10=
EXTT11=
EXTT12=
EXTT13=
EXTT14=
EXTT15=
PLAYORDER=
